<svg xmlns="http://www.w3.org/2000/svg" xmlns:xlink="http://www.w3.org/1999/xlink">
  <defs/>
  <g>
    <path fill="none" stroke="#FFFFFF" stroke-width="4" stroke-linecap="round" stroke-linejoin="round" d="M64 31.4 Q64.15 18.65 73.4 9.4 82.8 0 96 0 109.2 0 118.6 9.4 128 18.8 128 32 128 45.2 118.6 54.6 109.35 63.85 96.6 64 109.35 64.15 118.6 73.4 128 82.8 128 96 128 109.2 118.6 118.6 109.2 128 96 128 82.8 128 73.4 118.6 64.15 109.35 64 96.6 63.85 109.35 54.6 118.6 45.2 128 32 128 18.8 128 9.4 118.6 0 109.2 0 96 0 82.8 9.4 73.4 18.65 64.15 31.4 64 18.65 63.85 9.4 54.6 0 45.2 0 32 0 18.8 9.4 9.4 18.8 0 32 0 45.2 0 54.6 9.4 63.85 18.65 64 31.4 L64 32.6 Q64.15 45.35 73.4 54.6 82.65 63.85 95.4 64 L96.6 64 M31.4 64 L32.6 64 Q45.35 63.85 54.6 54.6 63.85 45.35 64 32.6 M95.4 64 Q82.65 64.15 73.4 73.4 64.15 82.65 64 95.4 L64 96.6 M32.6 64 Q45.35 64.15 54.6 73.4 63.85 82.65 64 95.4"/>
  </g>
</svg>