<svg xmlns="http://www.w3.org/2000/svg" xmlns:xlink="http://www.w3.org/1999/xlink">
  <defs/>
  <g>
    <path fill="none" stroke="#FFFFFF" stroke-width="4" stroke-linecap="round" stroke-linejoin="round" d="M128 24 L122 18 116 12 110 6 104 0 M122 18 L128 12 M110 6 L116 0 M114 38 L120 32 96 8 90 14 114 38 108 44 102 50 96 56 72 32 78 26 84 20 90 14 M108 44 L84 20 M90 78 L84 84 108 108 114 102 90 78 96 72 120 96 114 102 M82 58 L88 64 64 88 58 82 52 76 46 70 40 64 64 40 70 46 76 52 82 58 58 82 M128 88 L122 82 116 76 110 70 104 64 128 40 M122 82 L128 76 M116 76 L128 64 M116 12 L128 0 M110 70 L128 52 M88 0 L64 24 58 18 52 12 46 6 40 0 M46 6 L52 0 M44 44 L50 38 26 14 20 20 44 44 38 50 32 56 8 32 14 26 20 20 M50 38 L56 32 32 8 26 14 M58 18 L76 0 M52 12 L64 0 M0 12 L12 0 M0 40 L6 46 12 52 18 58 24 64 0 88 M24 0 L0 24 M0 64 L12 52 M14 90 L8 96 32 120 38 114 14 90 20 84 26 78 32 72 56 96 50 102 44 108 38 114 M0 76 L18 58 M52 76 L76 52 M78 90 L72 96 96 120 102 114 78 90 84 84 M46 70 L70 46 M0 52 L6 46 M38 50 L14 26 M40 128 L64 104 70 110 76 116 82 122 88 128 M64 128 L76 116 M52 128 L70 110 M0 128 L12 116 6 110 0 116 M12 116 L18 122 24 128 M12 128 L18 122 M0 104 L6 110 M102 114 L108 108 M116 128 L128 116 M104 128 L128 104 M102 50 L78 26 M76 128 L82 122 M44 108 L20 84 M50 102 L26 78"/>
  </g>
</svg>