<svg xmlns="http://www.w3.org/2000/svg" xmlns:xlink="http://www.w3.org/1999/xlink">
  <defs/>
  <g>
    <path fill="none" stroke="#FFFFFF" stroke-width="4" stroke-linecap="round" stroke-linejoin="round" d="M84 0 L128 0 128 20 128 64 128 84 128 128 108 128 64 128 44 128 0 128 0 108 0 64 0 44 0 0 20 0 64 0 84 0 84 20 108 20 128 20 M84 20 L84 44 108 44 108 20 M84 84 L84 64 64 64 64 84 64 108 84 108 84 84 108 84 128 84 M128 64 L108 64 84 64 M108 44 L108 64 M64 0 L64 20 64 44 84 44 M20 0 L20 20 44 20 64 20 M20 20 L20 44 44 44 44 20 M20 44 L0 44 M0 108 L20 108 20 84 20 64 0 64 M20 84 L44 84 64 84 M64 64 L44 64 20 64 M64 64 L64 44 M44 44 L44 64 M44 84 L44 108 44 128 M64 128 L64 108 M20 108 L44 108 M108 84 L108 108 108 128 M84 108 L108 108"/>
  </g>
</svg>