<svg xmlns="http://www.w3.org/2000/svg" xmlns:xlink="http://www.w3.org/1999/xlink">
  <defs/>
  <g>
    <path fill="none" stroke="#FFFFFF" stroke-width="4" stroke-linecap="round" stroke-linejoin="round" d="M128 0 L128 32 128 64 128 96 128 128 96 128 64 128 32 128 0 128 0 96 0 64 0 32 0 0 32 0 64 0 96 0 128 0 112 16 128 32 112 48 128 64 112 80 128 96 112 112 128 128 M112 16 L96 0 96 32 112 16 M128 32 L96 32 112 48 96 64 128 64 M112 80 L96 64 96 96 112 80 M96 96 L128 96 M96 32 L96 64 80 48 64 64 96 64 80 80 96 96 112 112 96 128 80 112 64 128 48 112 32 128 16 112 0 128 M64 0 L80 16 96 0 M64 32 L80 48 96 32 64 32 48 16 32 32 64 32 64 0 48 16 32 0 32 32 16 16 0 32 32 32 48 48 64 32 80 16 96 32 M0 0 L16 16 32 0 M0 64 L16 48 0 32 M16 48 L32 32 32 64 48 48 64 64 64 32 M16 80 L32 64 0 64 16 80 32 96 32 64 16 48 M0 96 L16 80 M32 96 L0 96 16 112 32 96 48 80 32 64 64 64 80 80 64 96 96 96 96 128 M64 64 L64 96 48 80 64 64 M32 96 L64 96 80 112 96 96 M64 96 L64 128 M48 112 L32 96 32 128 M64 96 L48 112"/>
  </g>
</svg>