<svg xmlns="http://www.w3.org/2000/svg" xmlns:xlink="http://www.w3.org/1999/xlink">
  <defs/>
  <g>
    <path fill="none" stroke="#FFFFFF" stroke-width="4" stroke-linecap="round" stroke-linejoin="round" d="M112 0 L112 8 128 24 128 40 112 56 112 72 128 88 128 104 112 120 112 128 M112 8 L96 24 96 40 112 56 M96 40 L80 56 80 72 96 88 112 72 M48 0 L48 8 64 24 80 8 80 0 M64 24 L64 40 80 56 M16 0 L16 8 32 24 48 8 M16 128 L16 120 0 104 0 88 16 72 16 56 0 40 0 24 16 8 M32 24 L32 40 48 56 64 40 M16 72 L32 88 48 72 48 56 M48 72 L64 88 80 72 M32 40 L16 56 M32 88 L32 104 48 120 64 104 64 88 M80 128 L80 120 64 104 M48 120 L48 128 M16 120 L32 104 M96 88 L96 104 112 120 M96 24 L80 8 M80 120 L96 104"/>
  </g>
</svg>