<svg xmlns="http://www.w3.org/2000/svg" xmlns:xlink="http://www.w3.org/1999/xlink">
  <defs/>
  <g>
    <path fill="none" stroke="#FFFFFF" stroke-width="4" stroke-linecap="round" stroke-linejoin="round" d="M104 8 L112 0 128 16 120 24 128 32 120 40 128 48 112 64 128 80 120 88 128 96 120 104 128 112 112 128 104 120 96 128 88 120 80 128 64 112 48 128 40 120 32 128 24 120 16 128 0 112 8 104 0 96 8 88 0 80 16 64 0 48 8 40 0 32 8 24 0 16 16 0 24 8 32 0 40 8 48 0 64 16 80 0 88 8 96 0 104 8 120 24 112 32 120 40 104 56 112 64 104 72 120 88 112 96 120 104 104 120 96 112 88 120 72 104 64 112 56 104 40 120 32 112 24 120 8 104 16 96 8 88 24 72 16 64 24 56 8 40 16 32 8 24 24 8 32 16 40 8 56 24 64 16 72 24 88 8 96 16 104 8 M112 32 L96 16 80 32 96 48 112 32 M88 72 L96 64 88 56 80 64 88 72 96 80 104 72 96 64 104 56 96 48 88 56 72 40 64 48 80 64 64 80 72 88 88 72 M112 96 L96 80 80 96 96 112 112 96 M48 32 L56 40 64 32 56 24 48 32 32 16 16 32 32 48 48 32 M72 40 L80 32 72 24 64 32 72 40 M56 40 L64 48 48 64 64 80 56 88 64 96 72 88 80 96 72 104 64 96 56 104 48 96 32 112 16 96 32 80 24 72 32 64 24 56 32 48 40 56 56 40 M40 56 L32 64 40 72 48 64 40 56 M32 80 L40 72 56 88 48 96 32 80"/>
  </g>
</svg>