<svg xmlns="http://www.w3.org/2000/svg" xmlns:xlink="http://www.w3.org/1999/xlink">
  <defs/>
  <g>
    <path fill="none" stroke="#FFFFFF" stroke-width="4" stroke-linecap="round" stroke-linejoin="round" d="M0 48 L8 40 0 32 8 24 16 16 24 8 32 0 40 8 48 16 56 24 64 32 72 24 80 16 88 8 96 0 104 8 112 16 120 24 128 32 120 40 128 48 M104 8 L96 16 88 8 M120 40 L112 48 128 64 M112 16 L96 32 80 16 M120 24 L96 48 72 24 M64 32 L72 40 80 48 88 56 96 64 104 56 112 48 M96 64 L88 72 96 80 104 72 96 64 M104 72 L112 80 120 88 128 96 120 104 128 112 M112 80 L96 96 80 80 72 88 96 112 120 88 M128 16 L112 0 M128 80 L104 56 M80 0 L64 16 48 0 M8 40 L16 48 24 56 32 64 40 56 48 48 56 40 64 32 M72 40 L64 48 56 40 M40 8 L32 16 24 8 M16 0 L0 16 M48 16 L32 32 16 16 M56 24 L32 48 8 24 M0 112 L8 104 0 96 8 88 16 80 24 72 32 64 40 72 48 80 56 88 64 96 72 88 M48 80 L32 96 16 80 M24 56 L0 80 M40 72 L32 80 24 72 M16 48 L0 64 M88 56 L64 80 40 56 M80 48 L64 64 48 48 M64 128 L80 112 72 104 64 112 56 104 48 112 64 128 M48 128 L40 120 32 128 24 120 16 128 M24 120 L16 112 0 128 M16 112 L8 104 M48 112 L40 120 M112 128 L104 120 96 128 88 120 80 128 M128 128 L112 112 104 120 M120 104 L112 112 M88 72 L80 80 M88 120 L80 112 M72 104 L64 96 56 104 M56 88 L32 112 8 88"/>
  </g>
</svg>