<svg xmlns="http://www.w3.org/2000/svg" xmlns:xlink="http://www.w3.org/1999/xlink">
  <defs/>
  <g>
    <path fill="none" stroke="#FFFFFF" stroke-width="4" stroke-linecap="round" stroke-linejoin="round" d="M64 32 L73.4 9.3 96.1 0 118.6 9.3 128 32 118.6 54.6 96.1 64 118.6 73.3 128 96 118.6 118.6 96.1 128 73.4 118.6 64 96 54.6 118.6 32.1 128 9.4 118.6 0 96 9.4 73.3 32.1 64 9.4 54.6 0 32 9.4 9.3 32.1 0 54.6 9.3 64 32 73.4 54.6 96.1 64 73.4 73.3 64 96 54.6 73.3 32.1 64 54.6 54.6 64 32"/>
  </g>
</svg>