<svg xmlns="http://www.w3.org/2000/svg" xmlns:xlink="http://www.w3.org/1999/xlink">
  <defs/>
  <g>
    <path fill="none" stroke="#FFFFFF" stroke-width="4" stroke-linecap="round" stroke-linejoin="round" d="M122 18 L128 12 M110 6 L116 0 M114 38 L90 14 M120 32 L96 8 M108 44 L84 20 M120 96 L96 72 M122 82 L128 76 M110 70 L128 52 M104 64 L128 40 M116 12 L128 0 M116 76 L128 64 M46 6 L52 0 M58 18 L76 0 M52 12 L64 0 M0 12 L12 0 M24 0 L0 24 M0 64 L12 52 M0 76 L18 58 M24 64 L0 88 M52 76 L76 52 M56 32 L32 8 M50 38 L26 14 M44 44 L20 20 M40 64 L64 40 M46 70 L70 46 M0 52 L6 46 M8 32 L32 56 M38 50 L14 26 M56 96 L32 72 M52 128 L70 110 M64 128 L76 116 M0 128 L12 116 M12 128 L18 122 M0 116 L6 110 M40 128 L64 104 M116 128 L128 116 M104 128 L128 104 M102 50 L78 26 M72 32 L96 56 M58 82 L82 58 M88 0 L64 24 M88 64 L64 88 M8 96 L32 120 M76 128 L82 122 M72 96 L96 120 M114 102 L90 78 M102 114 L78 90 M108 108 L84 84 M44 108 L20 84 M50 102 L26 78 M38 114 L14 90"/>
  </g>
</svg>