<svg xmlns="http://www.w3.org/2000/svg" xmlns:xlink="http://www.w3.org/1999/xlink">
  <defs/>
  <g>
    <path fill="none" stroke="#FFFFFF" stroke-width="4" stroke-linecap="round" stroke-linejoin="round" d="M128 0 L128 32 128 96 128 128 M112 0 L112 16 120 24 120 0 M104 0 L104 8 112 16 96 16 96 24 120 24 128 32 120 40 120 88 128 96 120 104 120 128 M88 8 L96 0 64 0 64 8 88 8 88 56 96 64 96 56 96 48 96 40 96 32 96 24 M96 0 L96 8 104 8 96 0 M96 8 L96 16 M120 40 L112 48 112 80 120 88 96 88 96 96 128 96 M96 48 L112 48 104 56 104 72 112 80 96 80 96 88 M96 40 L120 40 M96 64 L96 72 104 72 96 64 104 56 96 56 M96 64 L88 72 88 120 96 128 96 120 96 112 96 104 96 96 M96 72 L96 80 M96 32 L128 32 M72 24 L80 16 64 16 64 24 72 24 72 40 80 48 80 16 88 8 M64 8 L64 16 M48 0 L48 16 56 24 56 0 M48 48 L56 40 32 40 32 48 48 48 48 80 56 88 56 40 64 32 32 32 32 40 M72 40 L64 40 64 48 80 48 88 56 64 56 64 64 96 64 M72 24 L64 32 72 40 M64 32 L64 40 M56 24 L64 32 64 24 M40 128 L40 120 32 128 0 128 0 120 0 112 0 104 0 96 0 88 0 80 0 72 0 64 0 56 0 48 0 40 0 32 0 24 0 16 0 8 0 0 32 0 40 8 40 0 M32 0 L32 8 40 8 48 16 32 16 32 24 56 24 M0 8 L24 8 32 0 M32 8 L32 16 M0 24 L8 24 16 16 0 16 M0 40 L8 40 0 32 8 24 8 40 16 48 16 16 24 8 24 56 32 64 32 56 32 48 M0 48 L16 48 24 56 0 56 M32 24 L32 32 M32 56 L40 56 48 48 M32 72 L40 72 32 64 32 72 32 80 48 80 40 72 40 56 32 64 24 72 24 120 32 128 32 120 32 112 32 104 32 96 32 88 32 80 M0 88 L8 88 16 80 0 80 M0 96 L8 88 8 104 16 112 16 80 24 72 0 72 M0 64 L32 64 M64 64 L64 72 88 72 80 80 80 112 88 120 64 120 64 128 96 128 104 120 96 120 M64 88 L72 88 80 80 64 80 64 88 64 96 72 88 72 104 80 112 64 112 64 120 M64 72 L64 80 M32 96 L64 96 56 88 32 88 M64 48 L64 56 M64 104 L72 104 64 96 64 104 64 112 M56 128 L56 104 48 112 48 128 M32 120 L40 120 48 112 32 112 M0 112 L16 112 24 120 0 120 M0 104 L8 104 0 96 M32 104 L56 104 64 96 M112 128 L112 112 104 120 104 128 M120 104 L112 112 96 112 M96 104 L120 104"/>
  </g>
</svg>