<svg xmlns="http://www.w3.org/2000/svg" xmlns:xlink="http://www.w3.org/1999/xlink">
  <defs/>
  <g>
    <path fill="none" stroke="#FFFFFF" stroke-width="2" stroke-linecap="round" stroke-linejoin="round" d="M128 0 L128 32 128 64 128 96 128 128 96 128 64 128 32 128 0 128 0 96 0 64 0 32 0 0 32 0 64 0 96 0 128 0 112 16 128 32 112 48 128 64 112 80 128 96 112 112 128 128 M96 0 L112 16 96 32 128 32 M96 32 L112 48 96 64 128 64 M96 0 L96 32 80 16 64 32 96 32 96 64 80 48 64 64 96 64 112 80 96 96 128 96 M96 64 L96 96 80 80 64 96 96 96 112 112 96 128 80 112 64 128 48 112 32 128 16 112 0 128 M48 48 L64 32 32 32 48 48 64 64 64 32 48 16 32 32 16 16 0 32 32 32 32 0 16 16 0 0 M32 0 L48 16 64 0 80 16 96 0 M64 0 L64 32 80 48 96 32 M0 64 L16 48 0 32 M16 48 L32 32 32 64 48 48 M32 96 L32 64 16 80 32 96 48 80 32 64 16 48 M32 96 L0 96 16 112 32 96 64 96 48 80 64 64 32 64 0 64 16 80 0 96 M64 64 L80 80 96 64 M64 64 L64 96 80 112 96 96 96 128 M32 96 L48 112 64 96 64 128 M32 96 L32 128"/>
  </g>
</svg>