<svg xmlns="http://www.w3.org/2000/svg" xmlns:xlink="http://www.w3.org/1999/xlink">
  <defs/>
  <g>
    <path fill="none" stroke="#FFFFFF" stroke-width="2" stroke-linecap="round" stroke-linejoin="round" d="M112 24 L120 20 96 8 72 20 80 24 96 16 112 24 104 28 96 32 104 36 128 24 M112 0 L104 4 112 8 128 0 M112 8 L120 12 128 8 M104 4 L96 0 88 4 80 8 72 12 64 16 72 20 M64 16 L56 20 48 24 40 28 32 32 40 36 64 24 88 36 96 32 88 28 80 24 M104 36 L112 40 128 32 M112 40 L120 44 128 40 M88 28 L96 24 104 28 M128 56 L104 68 112 72 128 64 M120 44 L128 48 120 52 112 56 104 60 96 64 104 68 M112 56 L96 48 80 56 88 60 96 56 104 60 M88 60 L96 64 88 68 80 72 72 76 64 80 72 84 96 72 120 84 128 80 120 76 112 72 M64 80 L56 84 48 88 40 92 32 96 40 100 64 88 88 100 96 96 88 92 80 88 72 84 M88 92 L96 88 104 92 112 88 96 80 80 88 M120 84 L112 88 M104 92 L96 96 104 100 128 88 M120 20 L128 16 120 12 M120 76 L128 72 M88 36 L80 40 72 44 64 48 72 52 96 40 120 52 M80 8 L64 0 48 8 56 12 64 8 72 12 M80 40 L64 32 48 40 56 44 64 40 72 44 M56 12 L64 16 M56 44 L64 48 56 52 48 56 40 60 32 64 40 68 64 56 88 68 M48 8 L40 4 32 0 24 4 16 8 8 12 0 16 8 20 32 8 56 20 M0 8 L8 12 M8 20 L16 24 32 16 48 24 M0 0 L16 8 M32 32 L24 36 16 40 8 44 0 48 8 52 32 40 56 52 M0 32 L16 40 M0 40 L8 44 M40 28 L32 24 24 28 32 32 M16 0 L24 4 M16 24 L24 28 M0 24 L24 36 M48 56 L32 48 16 56 24 60 32 56 40 60 M0 56 L24 68 32 64 24 60 M0 64 L16 72 24 68 M16 56 L8 52 M16 72 L8 76 0 80 8 84 32 72 56 84 M8 84 L16 88 32 80 48 88 M16 88 L24 92 32 88 40 92 M24 92 L32 96 24 100 16 104 8 108 0 112 8 116 32 104 56 116 64 112 56 108 48 104 40 100 M0 72 L8 76 M72 52 L80 56 M40 68 L48 72 64 64 80 72 M64 80 L56 76 48 72 M56 76 L64 72 72 76 M40 4 L48 0 M40 36 L48 40 M88 100 L80 104 72 108 64 112 72 116 96 104 120 116 128 112 120 108 112 104 104 100 M56 108 L64 104 72 108 M72 116 L80 120 96 112 112 120 120 116 M56 116 L48 120 40 124 32 128 24 124 16 120 8 116 M48 128 L64 120 80 128 M0 104 L8 108 M24 124 L32 120 40 124 M16 120 L32 112 48 120 M0 120 L16 128 M112 120 L104 124 96 128 88 124 80 120 M88 124 L96 120 104 124 M112 128 L128 120 M120 108 L128 104 M80 0 L88 4 M48 104 L64 96 80 104 M0 88 L24 100 M0 96 L16 104 M112 104 L128 96"/>
  </g>
</svg>