<svg xmlns="http://www.w3.org/2000/svg" xmlns:xlink="http://www.w3.org/1999/xlink">
  <defs/>
  <g>
    <path fill="none" stroke="#FFFFFF" stroke-width="2" stroke-linecap="round" stroke-linejoin="round" d="M128 0 L116 12 122 18 128 12 M128 24 L122 18 M116 12 L110 6 104 0 M110 6 L116 0 M114 38 L120 32 96 8 90 14 114 38 108 44 102 50 96 56 72 32 78 26 84 20 90 14 M108 44 L84 20 M114 102 L120 96 96 72 90 78 114 102 108 108 102 114 96 120 72 96 78 90 84 84 90 78 M128 88 L122 82 116 76 110 70 104 64 128 40 M82 58 L88 64 64 88 58 82 52 76 46 70 40 64 64 40 70 46 76 52 82 58 58 82 M122 82 L128 76 M110 70 L128 52 M116 76 L128 64 M88 0 L64 24 58 18 52 12 46 6 40 0 M46 6 L52 0 M44 44 L50 38 26 14 20 20 44 44 38 50 32 56 8 32 14 26 20 20 M50 38 L56 32 32 8 26 14 M58 18 L76 0 M52 12 L64 0 M24 0 L0 24 M0 40 L6 46 12 52 18 58 24 64 0 88 M0 12 L12 0 M0 64 L12 52 M14 90 L8 96 32 120 38 114 14 90 20 84 26 78 32 72 56 96 50 102 44 108 38 114 M0 76 L18 58 M52 76 L76 52 M38 50 L14 26 M0 52 L6 46 M46 70 L70 46 M40 128 L64 104 70 110 76 116 82 122 88 128 M52 128 L70 110 M64 128 L76 116 M0 104 L6 110 12 116 18 122 24 128 M12 128 L18 122 M0 116 L6 110 M0 128 L12 116 M104 128 L128 104 M116 128 L128 116 M50 102 L26 78 M44 108 L20 84 M108 108 L84 84 M102 114 L78 90 M76 128 L82 122 M102 50 L78 26"/>
  </g>
</svg>