<svg xmlns="http://www.w3.org/2000/svg" xmlns:xlink="http://www.w3.org/1999/xlink">
  <defs/>
  <g>
    <path fill="none" stroke="#FFFFFF" stroke-width="2" stroke-linecap="round" stroke-linejoin="round" d="M112 0 L112 8 128 24 128 40 112 56 112 72 128 88 128 104 112 120 112 128 M96 40 L96 24 80 8 64 24 64 40 80 56 96 40 112 56 M112 8 L96 24 M80 56 L80 72 96 88 112 72 M64 24 L48 8 32 24 32 40 48 56 64 40 M48 0 L48 8 M80 8 L80 0 M32 24 L16 8 0 24 0 40 16 56 32 40 M16 0 L16 8 M16 128 L16 120 0 104 0 88 16 72 16 56 M16 72 L32 88 48 72 48 56 M48 72 L64 88 80 72 M64 88 L64 104 80 120 96 104 96 88 M64 104 L48 120 48 128 M80 128 L80 120 M16 120 L32 104 32 88 M32 104 L48 120 M96 104 L112 120"/>
  </g>
</svg>