<svg xmlns="http://www.w3.org/2000/svg" xmlns:xlink="http://www.w3.org/1999/xlink">
  <defs/>
  <g>
    <path fill="none" stroke="#FFFFFF" stroke-width="2" stroke-linecap="round" stroke-linejoin="round" d="M128 48 L124 40 120 48 128 64 M0 48 L4 40 0 32 4 24 8 16 12 8 16 0 20 8 24 16 28 24 32 32 36 24 40 16 44 8 48 0 52 8 56 16 60 24 64 32 68 24 72 16 76 8 80 0 84 8 88 16 92 24 96 32 100 24 104 16 108 8 112 0 116 8 120 16 124 24 128 32 124 40 M116 8 L112 16 108 8 M104 0 L96 16 88 0 M64 32 L68 40 72 48 76 56 80 64 84 56 88 48 92 40 96 32 100 40 104 48 108 56 112 64 116 56 120 48 M100 40 L96 48 92 40 M124 24 L112 48 100 24 M120 16 L112 32 104 16 M112 64 L116 72 120 80 124 88 128 96 124 104 128 112 M80 64 L84 72 88 80 92 88 96 96 100 88 104 80 108 72 112 64 M120 80 L112 96 104 80 M116 72 L112 80 108 72 M108 56 L96 80 84 56 M128 16 L120 0 M104 48 L96 64 88 48 M128 80 L116 56 M84 8 L80 16 76 8 M72 0 L64 16 56 0 M52 8 L48 16 44 8 M68 40 L64 48 60 40 56 48 64 64 72 48 M56 16 L48 32 40 16 M60 24 L48 48 36 24 M88 16 L80 32 72 16 M92 24 L80 48 68 24 M64 32 L60 40 M40 0 L32 16 24 0 M8 0 L0 16 M20 8 L16 16 12 8 M4 40 L8 48 12 56 16 64 20 56 24 48 28 40 32 32 36 40 40 48 44 56 48 64 52 56 56 48 M36 40 L32 48 28 40 M24 16 L16 32 8 16 M28 24 L16 48 4 24 M16 64 L20 72 24 80 28 88 32 96 36 88 40 80 44 72 48 64 52 72 56 80 60 88 64 96 68 88 72 80 76 72 80 64 M0 112 L4 104 0 96 4 88 8 80 12 72 16 64 M24 80 L16 96 8 80 M12 56 L0 80 M20 72 L16 80 12 72 M44 56 L32 80 20 56 M56 80 L48 96 40 80 M88 80 L80 96 72 80 M84 72 L80 80 76 72 M52 72 L48 80 44 72 M76 56 L64 80 52 56 M8 48 L0 64 M40 48 L32 64 24 48 M64 96 L68 104 72 112 76 120 80 128 84 120 88 112 92 104 96 96 100 104 104 112 108 120 112 128 116 120 120 112 124 104 M68 104 L64 112 60 104 56 112 64 128 72 112 M32 96 L36 104 40 112 44 120 48 128 52 120 56 112 M76 120 L72 128 M56 128 L52 120 M36 104 L32 112 28 104 24 112 32 128 40 112 M0 128 L8 112 4 104 M8 128 L12 120 8 112 M24 128 L20 120 16 128 12 120 M24 112 L20 120 M44 120 L40 128 M100 104 L96 112 92 104 M120 128 L116 120 M108 120 L104 128 M88 128 L84 120 M104 112 L96 128 88 112 M128 128 L120 112 M124 88 L112 112 100 88 M32 96 L28 104 M28 88 L16 112 4 88 M60 104 L64 96 M92 88 L80 112 68 88 M60 88 L48 112 36 88"/>
  </g>
</svg>