<svg xmlns="http://www.w3.org/2000/svg" xmlns:xlink="http://www.w3.org/1999/xlink">
  <defs/>
  <g>
    <path fill="none" stroke="#FFFFFF" stroke-width="2" stroke-linecap="round" stroke-linejoin="round" d="M96.2 15.8 Q96.3 9.3 100.8 4.6 105.55 0 112.1 0 118.65 0 123.35 4.6 128 9.4 128 16 128 22.6 123.35 27.3 118.75 31.9 112.3 32 118.75 32.1 123.35 36.6 128 41.4 128 48 128 54.6 123.35 59.3 118.65 64 112.1 64 105.55 64 100.8 59.3 96.3 54.7 96.2 48.2 96.1 54.7 91.55 59.3 86.85 64 80.3 64 73.75 64 68.95 59.3 64.5 54.7 64.4 48.2 64.3 54.7 59.75 59.3 55.05 64 48.5 64 41.95 64 37.15 59.3 32.7 54.7 32.6 48.2 32.5 54.7 27.95 59.3 23.25 64 16.7 64 10.15 64 5.35 59.3 0.8 54.6 0.8 48 0.8 41.4 5.35 36.6 10.05 32.1 16.5 32 10.05 31.9 5.35 27.3 0.8 22.6 0.8 16 0.8 9.4 5.35 4.6 10.15 0 16.7 0 23.25 0 27.95 4.6 32.5 9.3 32.6 15.8 32.7 9.3 37.15 4.6 41.95 0 48.5 0 55.05 0 59.75 4.6 64.3 9.3 64.4 15.8 64.5 9.3 68.95 4.6 73.75 0 80.3 0 86.85 0 91.55 4.6 96.1 9.3 96.2 15.8 L96.2 16.2 Q96.3 22.7 100.8 27.3 105.45 31.9 111.9 32 L112.3 32 M111.9 32 Q105.45 32.1 100.8 36.6 96.3 41.3 96.2 47.8 L96.2 48.2 M96.2 16.2 Q96.1 22.7 91.55 27.3 86.95 31.9 80.5 32 86.95 32.1 91.55 36.6 96.1 41.3 96.2 47.8 M95.4 80.2 Q95.3 86.7 90.75 91.3 86.15 95.9 79.7 96 86.15 96.1 90.75 100.6 95.3 105.3 95.4 111.8 95.5 105.3 100 100.6 104.65 96.1 111.1 96 104.65 95.9 100 91.3 95.5 86.7 95.4 80.2 L95.4 79.8 Q95.3 73.3 90.75 68.6 86.05 64 79.5 64 72.95 64 68.2 68.6 63.7 73.3 63.6 79.8 L63.6 80.2 Q63.7 86.7 68.2 91.3 72.85 95.9 79.3 96 L79.7 96 M95.4 111.8 L95.4 112.2 Q95.5 118.7 100 123.3 104.75 128 111.3 128 117.85 128 122.55 123.3 127.2 118.6 127.2 112 127.2 105.4 122.55 100.6 117.95 96.1 111.5 96 L111.1 96 M95.4 79.8 Q95.5 73.3 100 68.6 104.75 64 111.3 64 117.85 64 122.55 68.6 127.2 73.4 127.2 80 127.2 86.6 122.55 91.3 117.95 95.9 111.5 96 M64.4 15.8 L64.4 16.2 Q64.5 22.7 68.95 27.3 73.65 31.9 80.1 32 L80.5 32 M64.4 16.2 Q64.3 22.7 59.75 27.3 55.15 31.9 48.7 32 55.15 32.1 59.75 36.6 64.3 41.3 64.4 47.8 64.5 41.3 68.95 36.6 73.65 32.1 80.1 32 M48.7 32 L48.3 32 Q41.85 32.1 37.15 36.6 32.7 41.3 32.6 47.8 L32.6 48.2 M64.4 47.8 L64.4 48.2 M32.6 15.8 L32.6 16.2 Q32.7 22.7 37.15 27.3 41.85 31.9 48.3 32 M32.6 47.8 Q32.5 41.3 27.95 36.6 23.35 32.1 16.9 32 L16.5 32 M32.6 16.2 Q32.5 22.7 27.95 27.3 23.35 31.9 16.9 32 M95.4 112.2 Q95.3 118.7 90.75 123.3 86.05 128 79.5 128 72.95 128 68.2 123.3 63.7 118.7 63.6 112.2 63.5 118.7 58.95 123.3 54.25 128 47.7 128 41.15 128 36.4 123.3 31.9 118.7 31.8 112.2 31.7 118.7 27.15 123.3 22.45 128 15.9 128 9.35 128 4.6 123.3 0 118.6 0 112 0 105.4 4.6 100.6 9.25 96.1 15.7 96 9.25 95.9 4.6 91.3 0 86.6 0 80 0 73.4 4.6 68.6 9.35 64 15.9 64 22.45 64 27.15 68.6 31.7 73.3 31.8 79.8 31.9 73.3 36.4 68.6 41.15 64 47.7 64 54.25 64 58.95 68.6 63.5 73.3 63.6 79.8 M31.8 112.2 L31.8 111.8 Q31.7 105.3 27.15 100.6 22.55 96.1 16.1 96 L15.7 96 M31.8 111.8 Q31.9 105.3 36.4 100.6 41.05 96.1 47.5 96 41.05 95.9 36.4 91.3 31.9 86.7 31.8 80.2 31.7 86.7 27.15 91.3 22.55 95.9 16.1 96 M31.8 79.8 L31.8 80.2 M63.6 112.2 L63.6 111.8 Q63.5 105.3 58.95 100.6 54.35 96.1 47.9 96 L47.5 96 M63.6 80.2 Q63.5 86.7 58.95 91.3 54.35 95.9 47.9 96 M63.6 111.8 Q63.7 105.3 68.2 100.6 72.85 96.1 79.3 96"/>
  </g>
</svg>