<svg xmlns="http://www.w3.org/2000/svg" xmlns:xlink="http://www.w3.org/1999/xlink">
  <defs/>
  <g>
    <path fill="none" stroke="#FFFFFF" stroke-width="2" stroke-linecap="round" stroke-linejoin="round" d="M128 32 L128 10.7 117.4 0 96 0 96 32 128 32 128 53.4 117.4 64 128 74.7 128 96 128 117.4 117.4 128 96 128 74.7 128 64 117.4 53.4 128 32 128 10.7 128 0 117.4 0 96 0 74.7 10.7 64 0 53.4 0 32 0 10.7 10.7 0 32 0 53.4 0 64 10.7 74.7 0 96 0 M117.4 64 L96 64 96 96 128 96 M96 32 L96 64 74.7 64 64 74.7 64 96 96 96 96 128 M64 10.7 L64 32 96 32 M0 32 L32 32 32 0 M32 128 L32 96 0 96 M10.7 64 L32 64 32 32 64 32 64 53.4 74.7 64 M32 96 L32 64 53.4 64 64 53.4 M64 74.7 L53.4 64 M64 117.4 L64 96 32 96"/>
  </g>
</svg>